<?xml version="1.0" encoding="UTF-8" standalone="no"?>
<svg width="63px" height="81px" viewBox="0 0 63 81" version="1.1" xmlns="http://www.w3.org/2000/svg" xmlns:xlink="http://www.w3.org/1999/xlink" xmlns:sketch="http://www.bohemiancoding.com/sketch/ns">
    <!-- Generator: Sketch 3.3.3 (12081) - http://www.bohemiancoding.com/sketch -->
    <title>radio-icon copy</title>
    <desc>Created with Sketch.</desc>
    <defs></defs>
    <g id="Page-1" stroke="none" stroke-width="1" fill="none" fill-rule="evenodd" sketch:type="MSPage">
        <g id="radio-icon-copy" sketch:type="MSLayerGroup">
            <g id="Group" sketch:type="MSShapeGroup">
                <g transform="translate(0.000000, 7.875000)" id="Shape" fill="#FFFFFF">
                    <path d="M41.999625,9.3735 C41.808375,9.3735 41.614875,9.325125 41.43825,9.22275 L30.9375,3.159 C30.398625,2.8485 30.21525,2.16 30.52575,1.62225 C30.83625,1.0845 31.523625,0.89775 32.0625,1.2105 L42.56325,7.27425 C43.102125,7.58475 43.286625,8.27325 42.975,8.811 C42.766875,9.171 42.388875,9.3735 41.999625,9.3735 L41.999625,9.3735 Z"></path>
                    <path d="M31.498875,72.439875 C31.30875,72.439875 31.11525,72.3915 30.9375,72.289125 L1.0035,55.00575 C0.65475,54.804375 0.441,54.433125 0.441,54.0315 L0.441,19.467 C0.441,18.846 0.945,18.342 1.566,18.342 C2.187,18.342 2.691,18.846 2.691,19.467 L2.691,53.38125 L32.0625,70.3395 C32.601375,70.65 32.78475,71.3385 32.47425,71.87625 C32.265,72.237375 31.887,72.439875 31.498875,72.439875 L31.498875,72.439875 Z"></path>
                    <path d="M31.5,72.437625 C30.879,72.437625 30.375,71.93475 30.375,71.312625 L30.375,37.398375 L1.0035,20.44125 C0.464625,20.13075 0.28125,19.44225 0.59175,18.9045 C0.90225,18.36675 1.5885,18.181125 2.1285,18.49275 L32.0625,35.775 C32.41125,35.976375 32.625,36.347625 32.625,36.74925 L32.625,71.312625 C32.625,71.933625 32.121,72.437625 31.5,72.437625 L31.5,72.437625 Z"></path>
                </g>
                <g transform="translate(43.875000, 0.000000)" id="Shape" fill="#FFFFFF">
                    <path d="M18.120375,26.36775 L9.282375,21.26475 C8.744625,20.953125 8.056125,21.137625 7.745625,21.6765 C7.435125,22.21425 7.619625,22.90275 8.157375,23.21325 L16.432875,27.991125 L16.432875,61.905375 C16.432875,62.5275 16.93575,63.030375 17.557875,63.030375 C18.18,63.030375 18.682875,62.5275 18.682875,61.905375 L18.682875,27.342 C18.682875,26.940375 18.469125,26.569125 18.120375,26.36775 L18.120375,26.36775 Z"></path>
                    <path d="M5.342625,13.13775 C5.342625,12.3075 4.888125,11.58975 4.217625,11.199375 L4.217625,1.125 C4.217625,0.504 3.71475,0 3.092625,0 C2.4705,0 1.967625,0.504 1.967625,1.125 L1.967625,11.199375 C1.297125,11.58975 0.842625,12.306375 0.842625,13.13775 L0.842625,22.728375 C0.493875,23.1975 0.280125,23.77125 0.280125,24.400125 L0.280125,29.592 C0.280125,31.145625 1.539,32.4045 3.092625,32.4045 C4.64625,32.4045 5.905125,31.145625 5.905125,29.592 L5.905125,24.400125 C5.905125,23.77125 5.691375,23.196375 5.342625,22.728375 L5.342625,13.13775 L5.342625,13.13775 Z"></path>
                </g>
                <g transform="translate(37.125000, 41.625000)" id="Shape" fill="#FFFFFF">
                    <path d="M15.784875,1.28925 C13.995,0.277875 11.644875,0.466875 9.25425,1.84275 C7.04925,3.11625 4.986,5.284125 3.441375,7.950375 C1.906875,10.623375 1.065375,13.489875 1.072125,16.02 C1.08,18.7785 2.08125,20.871 3.895875,21.913875 C4.65075,22.345875 5.506875,22.564125 6.4395,22.564125 C7.70625,22.564125 9.048375,22.163625 10.434375,21.369375 C12.646125,20.0835 14.709375,17.913375 16.24275,15.25725 C17.778375,12.59775 18.619875,9.73125 18.613125,7.185375 C18.60525,4.41675 17.60175,2.322 15.784875,1.28925 L15.784875,1.28925 Z M14.293125,14.13225 C12.95325,16.452 11.18025,18.331875 9.30825,19.420875 C7.64775,20.370375 6.076125,20.5695 5.014125,19.960875 C3.891375,19.31625 3.331125,19.191375 3.322125,16.012125 C3.3165,13.87125 4.051125,11.40525 5.391,9.073125 C6.73875,6.746625 8.510625,4.870125 10.37925,3.79125 C11.3985,3.205125 12.39075,2.8935 13.249125,2.8935 C13.7835,2.8935 14.263875,3.011625 14.67675,3.2445 C15.760125,3.861 16.358625,5.26275 16.36425,7.191 C16.36875,9.3465 15.633,11.81025 14.293125,14.13225 L14.293125,14.13225 Z"></path>
                    <path d="M7.056,15.190875 C6.805125,15.332625 6.5835,15.562125 6.41475,15.85575 C6.2505,16.140375 6.1605,16.453125 6.161625,16.7355 C6.161625,17.128125 6.330375,17.449875 6.620625,17.614125 C6.75225,17.690625 6.906375,17.731125 7.063875,17.731125 C7.250625,17.731125 7.437375,17.677125 7.619625,17.571375 C7.871625,17.425125 8.092125,17.19675 8.2575,16.90875 C8.4195,16.6275 8.508375,16.31475 8.508375,16.027875 C8.508375,15.63525 8.339625,15.314625 8.046,15.148125 C7.759125,14.98275 7.39125,14.9985 7.056,15.190875 L7.056,15.190875 Z"></path>
                    <path d="M9.567,10.539 C9.3195,10.6785 9.091125,10.91475 8.92575,11.201625 C8.7615,11.482875 8.670375,11.795625 8.670375,12.087 C8.672625,12.483 8.84475,12.803625 9.136125,12.9645 C9.2655,13.03875 9.4185,13.07925 9.576,13.07925 C9.759375,13.07925 9.945,13.0275 10.13175,12.920625 C10.4445,12.738375 10.64925,12.46275 10.767375,12.26025 C10.9305,11.979 11.0205,11.66625 11.0205,11.370375 C11.016,10.9755 10.843875,10.656 10.55475,10.49625 C10.27125,10.3365 9.901125,10.348875 9.567,10.539 L9.567,10.539 Z"></path>
                    <path d="M12.069,12.196125 C11.82375,12.340125 11.59875,12.574125 11.4345,12.857625 C11.271375,13.141125 11.181375,13.453875 11.181375,13.7385 C11.181375,14.1255 11.347875,14.445 11.64375,14.61825 C11.775375,14.693625 11.92725,14.734125 12.08475,14.734125 C12.272625,14.734125 12.459375,14.680125 12.63375,14.57775 C12.88575,14.436 13.114125,14.198625 13.276125,13.912875 C13.4415,13.62375 13.530375,13.318875 13.530375,13.02525 C13.525875,12.637125 13.357125,12.31875 13.06575,12.151125 C12.78225,11.988 12.42225,11.997 12.069,12.196125 L12.069,12.196125 Z"></path>
                    <path d="M7.056,8.886375 C6.805125,9.028125 6.584625,9.2565 6.41475,9.547875 C6.2505,9.831375 6.1605,10.14525 6.161625,10.431 C6.161625,10.818 6.328125,11.1375 6.627375,11.314125 C6.757875,11.38725 6.908625,11.426625 7.063875,11.426625 C7.2495,11.426625 7.43625,11.37375 7.619625,11.268 C7.934625,11.084625 8.1405,10.80675 8.256375,10.605375 C8.4195,10.32525 8.508375,10.0125 8.508375,9.723375 C8.508375,9.331875 8.339625,9.01125 8.053875,8.848125 C7.767,8.679375 7.396875,8.692875 7.056,8.886375 L7.056,8.886375 Z"></path>
                    <path d="M12.069,5.891625 C11.8215,6.03675 11.5965,6.27075 11.435625,6.552 C11.271375,6.834375 11.181375,7.147125 11.181375,7.43175 C11.181375,7.8165 11.34675,8.136 11.647125,8.314875 C11.777625,8.388 11.928375,8.427375 12.08475,8.427375 C12.270375,8.427375 12.457125,8.3745 12.636,8.271 C12.886875,8.127 13.11525,7.89075 13.275,7.608375 C13.43925,7.324875 13.530375,7.012125 13.530375,6.72075 C13.525875,6.327 13.354875,6.0075 13.06575,5.846625 C12.78,5.684625 12.4155,5.693625 12.069,5.891625 L12.069,5.891625 Z"></path>
                </g>
                <g transform="translate(4.500000, 41.625000)" id="Shape">
                    <path d="M18.264375,20.993625 C17.875125,20.993625 17.496,20.791125 17.287875,20.43 C16.9785,19.891125 17.163,19.20375 17.701875,18.894375 C18.673875,18.334125 19.211625,17.07075 19.21725,15.334875 C19.222875,13.372875 18.549,11.11725 17.321625,8.98425 C16.08975,6.854625 14.46975,5.139 12.75975,4.152375 C11.242125,3.276 9.86625,3.09825 8.88525,3.6495 C8.344125,3.9555 7.65675,3.763125 7.353,3.220875 C7.048125,2.680875 7.2405,1.9935 7.781625,1.68975 C9.482625,0.730125 11.6505,0.914625 13.88475,2.203875 C15.931125,3.385125 17.843625,5.39325 19.27125,7.85925 C20.694375,10.333125 21.474,12.98925 21.46725,15.3405 C21.4605,17.911125 20.52225,19.86525 18.824625,20.842875 C18.648,20.94525 18.4545,20.993625 18.264375,20.993625 L18.264375,20.993625 Z" fill="#FFFFFF"></path>
                    <g transform="translate(11.250000, 18.000000)" fill="#000000">
                        <path d="M1.92375,4.80825 L7.01325,1.868625"></path>
                    </g>
                    <g transform="translate(1.125000, 1.125000)">
                        <path d="M2.118375,4.48425 L7.207875,1.544625" stroke="#979797" fill="#000000"></path>
                        <path d="M2.1195,5.60925 C1.73025,5.60925 1.35225,5.407875 1.144125,5.04675 C0.833625,4.507875 1.017,3.8205 1.555875,3.51 L6.645375,0.570375 C7.180875,0.259875 7.8705,0.44325 8.182125,0.982125 C8.492625,1.521 8.30925,2.208375 7.770375,2.518875 L2.680875,5.4585 C2.50425,5.560875 2.31075,5.60925 2.1195,5.60925 L2.1195,5.60925 Z" fill="#FFFFFF"></path>
                    </g>
                    <path d="M13.174875,23.93325 C12.785625,23.93325 12.4065,23.73075 12.198375,23.369625 C11.889,22.83075 12.0735,22.143375 12.612375,21.834 C13.58325,21.274875 14.121,20.010375 14.126625,18.2745 C14.13225,16.315875 13.460625,14.06025 12.232125,11.92275 C10.999125,9.793125 9.378,8.0775 7.669125,7.092 C6.150375,6.213375 4.775625,6.03675 3.798,6.588 C3.256875,6.894 2.57175,6.703875 2.264625,6.16275 C1.95975,5.62275 2.14875,4.935375 2.689875,4.6305 C4.388625,3.66975 6.557625,3.852 8.794125,5.1435 C10.83825,6.3225 12.751875,8.330625 14.180625,10.798875 C15.604875,13.276125 16.383375,15.93225 16.376625,18.280125 C16.36875,20.851875 15.431625,22.806 13.735125,23.7825 C13.5585,23.884875 13.365,23.93325 13.174875,23.93325 L13.174875,23.93325 Z" fill="#FFFFFF"></path>
                    <path d="M11.343375,24.39675 C10.161,24.39675 8.91,24.02325 7.626375,23.2875 C5.56875,22.09275 3.65625,20.08125 2.235375,17.622 C0.813375,15.157125 0.032625,12.49875 0.039375,10.14075 C0.046125,7.556625 0.986625,5.60025 2.6865,4.63275 C4.372875,3.67875 6.56775,3.85875 8.793,5.144625 C10.837125,6.323625 12.75075,8.33175 14.1795,10.8 C15.60375,13.27725 16.38225,15.933375 16.3755,18.28125 C16.367625,20.853 15.4305,22.807125 13.734,23.783625 C13.02075,24.190875 12.2175,24.39675 11.343375,24.39675 L11.343375,24.39675 Z M5.070375,6.27525 C4.593375,6.27525 4.16475,6.381 3.796875,6.588 C2.8305,7.138125 2.295,8.4015 2.2905,10.14525 C2.284875,12.112875 2.957625,14.3685 4.185,16.495875 C5.41125,18.621 7.0335,20.34 8.751375,21.339 C10.23975,22.19175 11.656125,22.3785 12.61575,21.83175 C13.58325,21.274875 14.121,20.010375 14.1255,18.2745 C14.131125,16.315875 13.4595,14.06025 12.231,11.92275 C10.998,9.793125 9.376875,8.0775 7.668,7.092 C6.74325,6.557625 5.8455,6.27525 5.070375,6.27525 L5.070375,6.27525 Z" fill="#FFFFFF"></path>
                </g>
                <path d="M19.35675,23.17275 C19.39725,22.116375 18.78525,21.105 17.66925,20.394 C16.7175,19.791 15.462,19.429875 14.13225,19.377 C12.79575,19.319625 11.525625,19.578375 10.513125,20.107125 C9.338625,20.728125 8.63775,21.69 8.5905,22.750875 L8.5905,22.750875 C8.5905,22.750875 8.5905,22.750875 8.5905,22.752 L8.48925,25.27425 C8.4465,26.33625 9.061875,27.352125 10.177875,28.063125 C11.124,28.665 12.380625,29.026125 13.717125,29.08125 C13.829625,29.08575 13.942125,29.088 14.0535,29.088 C15.262875,29.088 16.416,28.830375 17.3295,28.351125 C18.51975,27.725625 19.204875,26.789625 19.256625,25.716375 C19.256625,25.714125 19.2555,25.713 19.2555,25.71075 C19.2555,25.709625 19.256625,25.7085 19.256625,25.707375 L19.35675,23.193 L19.35675,23.191875 L19.35675,23.19075 L19.35675,23.187375 C19.359,23.180625 19.35675,23.17725 19.35675,23.17275 L19.35675,23.17275 Z" id="Shape" fill="#FFFFFF"></path>
            </g>
        </g>
    </g>
</svg>